# xmcd CD database file
#
# Track frame offsets:
#	150
#	20030
#	36368
#	54885
#	75575
#	89888
#	106995
#	121208
#	135925
#	150858
#	167640
#	185185
#	198585
#	218458
#	232155
#	245803
#
# Disc length: 3456 seconds
#
# Revision: 0
# Processed by: cddbd v1.4PL0 Copyright (c) Steve Scherf et al.
# Submitted via: Feurio! 1.65 - http://www.feurio.com
#
DISCID=d80d7e10
DTITLE=Various Artist - Romantic Piano 04
DYEAR=1900
DGENRE=Piano
TTITLE0=Lady
TTITLE1=Yesterday once more
TTITLE2=That's what friends are for
TTITLE3=Casablanca
TTITLE4=Dust in the wind
TTITLE5=Memory
TTITLE6=Hello
TTITLE7=Because I love you
TTITLE8=Nothing's gonna change my love for you
TTITLE9=Careless whisper
TTITLE10=Saving all my love for you
TTITLE11=Up where we belong
TTITLE12=Woman in love
TTITLE13=You don't bring me flower
TTITLE14=Evergreen_a star is born
TTITLE15=When the child is born
EXTD=
EXTT0=
EXTT1=
EXTT2=
EXTT3=
EXTT4=
EXTT5=
EXTT6=
EXTT7=
EXTT8=
EXTT9=
EXTT10=
EXTT11=
EXTT12=
EXTT13=
EXTT14=
EXTT15=
PLAYORDER=
